<svg id="socialIcons" xmlns="http://www.w3.org/2000/svg" version="1.1">

  <symbol id="amazon" viewBox="0 0 48 48">
    <g class="svg-icon">
      <path d="M41,38.87a1.65,1.65,0,0,0-.71.16l-0.77.32-0.36.15-0.47.19h0a44.78,44.78,0,0,1-15.57,3.42H22.61c-7.87,0-14.3-3.65-20.78-7.25a1.48,1.48,0,0,0-.69-0.18A1.2,1.2,0,0,0,.34,36a1.11,1.11,0,0,0-.34.8,1.28,1.28,0,0,0,.51,1C6.59,43.09,13.25,48,22.22,48h0.53a35.25,35.25,0,0,0,17.16-5.2l0,0a17.54,17.54,0,0,0,1.93-1.33,1.54,1.54,0,0,0,.65-1.19A1.43,1.43,0,0,0,41,38.87ZM48,35.95h0a2.28,2.28,0,0,0-.34-1.2l0,0,0,0A1.64,1.64,0,0,0,47,34.27a8.12,8.12,0,0,0-2.77-.39,12.54,12.54,0,0,0-2.66.28V34.09l-0.92.31h0l-0.52.17v0a8.17,8.17,0,0,0-1.68.95,1.32,1.32,0,0,0-.6,1,1,1,0,0,0,.35.75,1.12,1.12,0,0,0,.71.24h0.23c0.45-.1,1.11-0.16,1.88-0.27a18.56,18.56,0,0,1,2-.13,5.4,5.4,0,0,1,1.08.08,1.21,1.21,0,0,1,.29.09l0,0a1,1,0,0,1,0,.27A9.2,9.2,0,0,1,43.87,40c-0.29.92-.64,1.84-0.87,2.46a1.25,1.25,0,0,0-.09.47,1,1,0,0,0,.31.74,1,1,0,0,0,.71.28h0a1.42,1.42,0,0,0,.87-0.33A10.84,10.84,0,0,0,48,36.25v-0.3ZM25.4,26A5.13,5.13,0,0,1,22,28.72c-0.21,0-.53.1-0.85,0.1-2.33,0-3.71-1.8-3.71-4.45,0-3.39,2-5,4.55-5.73a20.93,20.93,0,0,1,4.56-.42V19.5C26.57,21.93,26.67,23.84,25.4,26Zm1.17-12.61c-1.38.1-3,.21-4.56,0.42a23.49,23.49,0,0,0-6.88,1.7,10.18,10.18,0,0,0-6.57,10c0,6.26,4,9.43,9.11,9.43A17.55,17.55,0,0,0,22,34.33a13.22,13.22,0,0,0,5.72-3.92,16.66,16.66,0,0,0,3.5,4,1.49,1.49,0,0,0,1.48-.1c1.27-1.06,3.5-3,4.66-4a1.14,1.14,0,0,0,.1-1.59c-1.16-1.49-2.33-2.76-2.33-5.62V13.56c0-4,.32-7.74-2.64-10.49C30.06,0.85,26.25,0,23.28,0H22c-5.4.31-11.12,2.65-12.39,9.32a1,1,0,0,0,.85,1.27l5.93,0.74a1.35,1.35,0,0,0,1.06-1.16A4.84,4.84,0,0,1,22,6.46h0.43a4.16,4.16,0,0,1,3.39,1.59c0.85,1.27.74,3,.74,4.45v0.85h0Z"/>
    </g>
  </symbol>

  <symbol id="android" viewBox="0 0 48 48">
    <g class="svg-icon">
      <path d="M29.73,9.6a1.39,1.39,0,1,1,1.43-1.39A1.41,1.41,0,0,1,29.73,9.6h0Zm-11.45,0a1.39,1.39,0,1,1,1.43-1.39A1.41,1.41,0,0,1,18.28,9.6h0ZM30.57,4l0.53-.78,0.53-.77,1.19-1.74A0.45,0.45,0,0,0,32.71.08h0A0.48,0.48,0,0,0,32,.17l0,0L30.22,2.85l-0.55.8a16.37,16.37,0,0,0-11.36,0l-0.54-.8-0.54-.78L16,0.21A0.49,0.49,0,0,0,15.32.06l0,0a0.46,0.46,0,0,0-.13.64h0l1.19,1.74,0.53,0.77L17.43,4c-4.05,1.84-6.79,5.32-6.79,9.3H37.36C37.36,9.34,34.62,5.86,30.57,4ZM10.84,15.17h-0.2V35.61a3,3,0,0,0,3,2.94h2.18a2.62,2.62,0,0,0-.12.77V45.2a2.87,2.87,0,0,0,5.73,0V39.33a2.71,2.71,0,0,0-.12-0.77h5.32a2.71,2.71,0,0,0-.11.77v5.88a2.87,2.87,0,0,0,5.73,0V39.33a2.62,2.62,0,0,0-.12-0.77h2.18a3,3,0,0,0,3-2.94V15.17H10.84Zm-5,0A2.83,2.83,0,0,0,3,18H3V29.88a2.83,2.83,0,0,0,2.86,2.79,2.82,2.82,0,0,0,2.86-2.78h0V18a2.82,2.82,0,0,0-2.81-2.83H5.84Zm36.27,0A2.83,2.83,0,0,0,39.27,18h0V29.88a2.86,2.86,0,1,0,5.73,0V18a2.82,2.82,0,0,0-2.81-2.83H42.11Z"/>
    </g>
  </symbol>

  <symbol id="apple" viewBox="0 0 48 48">
    <g class="svg-icon">
      <path d="M31.67,7.79A10.57,10.57,0,0,0,34,0,11.27,11.27,0,0,0,26.7,3.95c-1.59,1.93-2.9,4.81-2.39,7.6a9.51,9.51,0,0,0,7.36-3.76h0ZM45.5,35.22A34.68,34.68,0,0,1,42.4,41c-2,3.08-4.85,6.93-8.37,7-3.12,0-3.93-2-8.17-2S20.74,48,17.62,48c-3.52,0-6.2-3.5-8.21-6.58C3.77,32.8,3.18,22.68,6.65,17.3c2.47-3.82,6.36-6.06,10-6.06s6.07,2.05,9.15,2.05,4.81-2.06,9.12-2.06a12.15,12.15,0,0,1,9.17,4.87c-8.06,4.44-6.75,16,1.39,19.11h0Z"/>
    </g>
  </symbol>

  <symbol id="behance" viewBox="0 0 48 48">
    <g class="svg-icon">
      <path d="M30.67,14H43.38V10.36H30.67V14h0Zm3,7.95a5.85,5.85,0,0,0-1.53,3.35H42a4.73,4.73,0,0,0-1.53-3.42,5.09,5.09,0,0,0-3.41-1.16A4.59,4.59,0,0,0,33.68,22h0Zm8.58-4.89A8.83,8.83,0,0,1,46,20.26a10.45,10.45,0,0,1,1.75,4.47A27.47,27.47,0,0,1,48,29H32c0.1,2.17.85,3.69,2.3,4.56a5.88,5.88,0,0,0,3.16.82,4.91,4.91,0,0,0,3.18-1,4.71,4.71,0,0,0,1.18-1.49h5.86a7.08,7.08,0,0,1-2.13,3.91Q42.62,39,37.32,39a12,12,0,0,1-7.72-2.66q-3.36-2.66-3.35-8.66,0-5.63,3-8.63a10.67,10.67,0,0,1,7.84-3,12.62,12.62,0,0,1,5.16,1h0ZM5.91,25.38v7.8h7.2a7.11,7.11,0,0,0,3-.52,3.68,3.68,0,0,0,2-3.65,3.14,3.14,0,0,0-1.89-3.14,7.58,7.58,0,0,0-3-.5H5.91Zm0-11.3v6.46h7.21a6,6,0,0,0,3.14-.73,2.76,2.76,0,0,0,1.21-2.57,2.63,2.63,0,0,0-1.59-2.71,11.38,11.38,0,0,0-3.51-.46H5.91Zm16.11-2a7.38,7.38,0,0,1,1.36,4.47A6.46,6.46,0,0,1,22,20.89a7.11,7.11,0,0,1-2.26,1.66,6.65,6.65,0,0,1,3.43,2.58,7.68,7.68,0,0,1,1.15,4.29A8.45,8.45,0,0,1,23,34.1a8.13,8.13,0,0,1-2.1,2.3,8.22,8.22,0,0,1-3.35,1.47,20.85,20.85,0,0,1-4.19.39H0V9H14.33Q19.76,9.08,22,12.12h0Z"/>
    </g>
  </symbol>

  <symbol id="blogger" viewBox="0 0 48 48">
    <g class="svg-icon">
      <path d="M32.55,35.52H15.4a2.89,2.89,0,1,1-.34-5.77H32.54a2.89,2.89,0,1,1,.34,5.77H32.54M15.4,12.4h8.44a2.89,2.89,0,1,1,0,5.79H15.4a2.89,2.89,0,1,1,0-5.79m31.37,6.17c-1-.43-5.36,0-6.57-1-0.85-.79-0.91-2.21-1.24-4.11a17.17,17.17,0,0,0-1.37-5.15C35.49,3.82,30.44,0,25.85,0H15.21A15.24,15.24,0,0,0,0,15.17V32.86A15.22,15.22,0,0,0,15.21,48H32.69A15.25,15.25,0,0,0,47.9,32.86L48,20.61a2.32,2.32,0,0,0-1.22-2"/>
    </g>
  </symbol>

  <symbol id="codepen" viewBox="0 0 48 48">
    <g class="svg-icon">
      <path d="M48,16.42l0-.09c0-.06,0-0.12,0-0.17l0-.1-0.05-.15,0-.1-0.07-.14-0.06-.1-0.09-.13-0.07-.09-0.1-.11-0.08-.08-0.12-.1L47.12,15l0,0L25.14,0.35a2.06,2.06,0,0,0-2.29,0L0.92,15l0,0-0.09.07-0.12.1-0.08.08-0.1.11-0.07.09-0.09.13-0.06.1-0.07.14,0,0.1-0.05.15,0,0.1c0,0.06,0,.11,0,0.17a0.89,0.89,0,0,0,0,.09,2,2,0,0,0,0,.27V31.31a2,2,0,0,0,0,.27s0,0.06,0,.09,0,0.12,0,.17l0,0.1L0.16,32.1l0,0.1,0.07,0.14,0.06,0.09,0.09,0.12,0.07,0.09,0.1,0.11,0.08,0.08,0.12,0.1L0.89,33l0,0L22.86,47.65a2.06,2.06,0,0,0,2.29,0L47.08,33l0,0,0.09-.07,0.12-.1,0.08-.08,0.1-.11,0.07-.09,0.09-.12,0.06-.09,0.07-.14,0-.1,0.05-.15,0-.1c0-.06,0-0.11,0-0.17l0-.09a2,2,0,0,0,0-.27V16.69a2,2,0,0,0,0-.27h0ZM26.06,5.92L42.22,16.69,35,21.52l-8.94-6V5.92h0Zm-4.12,0v9.62l-8.94,6L5.78,16.69,21.94,5.92h0ZM4.13,20.55L9.29,24,4.13,27.45v-6.9h0ZM21.94,42.08L5.78,31.31,13,26.48l8.94,6v9.62h0ZM24,28.88L16.71,24,24,19.12,31.3,24,24,28.88h0Zm2.06,13.2V32.46l8.94-6,7.22,4.83L26.06,42.08h0ZM43.88,27.45L38.72,24l5.16-3.45v6.9h0Z"/>
    </g>
  </symbol>

  <symbol id="dailymotion" viewBox="0 0 48 48">
    <g class="svg-icon">
      <path d="M0,48H48V0H0V48Zm41.39-6.43H34.24V38.76a9.73,9.73,0,0,1-7.44,2.95,11.39,11.39,0,0,1-7.86-2.95,12.75,12.75,0,0,1-4.4-9.87,12.74,12.74,0,0,1,4-9.35,11.67,11.67,0,0,1,8.37-3.46A8.4,8.4,0,0,1,34,19.26V8.32l7.39-1.53V41.57ZM28.16,22.63A6.2,6.2,0,1,0,28.44,35a5.93,5.93,0,0,0,5.85-6.08A6.1,6.1,0,0,0,28.16,22.63Z"/>
    </g>
  </symbol>

  <symbol id="dribbble" viewBox="0 0 48 48">
    <g class="svg-icon">
      <path d="M35.45,41a88.58,88.58,0,0,0-4-14.64,29.72,29.72,0,0,1,12.77.89A20.5,20.5,0,0,1,35.45,41h0ZM24,44.5a20.42,20.42,0,0,1-13.06-4.7l0.46,0.36s3.93-8.57,16.08-12.8l0.14,0A85.28,85.28,0,0,1,32,42.87a20.43,20.43,0,0,1-8,1.63h0ZM3.5,24c0-.22,0-0.43,0-0.65a75.15,75.15,0,0,0,21-2.92c0.59,1.15,1.15,2.32,1.66,3.49l-0.81.25C14.36,27.73,8.75,37.69,8.75,37.69h0A20.42,20.42,0,0,1,3.5,24h0ZM15.25,5.47a122.59,122.59,0,0,1,7.61,11.81,75.82,75.82,0,0,1-18.92,2.5A20.5,20.5,0,0,1,15.25,5.47h0ZM19.09,4.1H19l0.06,0h0ZM37.54,8.62c-0.05.08-3,4.52-10.71,7.42a104.13,104.13,0,0,0-7.66-12A20.46,20.46,0,0,1,37.54,8.62h0Zm7,15.17a47.41,47.41,0,0,0-14.28-.67c-0.15-.35-0.29-0.7-0.44-1.06-0.43-1-.89-2-1.36-3C36.5,15.79,39.79,11,39.83,11A20.42,20.42,0,0,1,44.49,23.8h0Zm3-4.63a24.09,24.09,0,0,0-1.4-4.51,23.72,23.72,0,0,0-2.21-4.08,24,24,0,0,0-39.8,0A23.91,23.91,0,0,0,.49,19.17a24.3,24.3,0,0,0,0,9.67A24,24,0,0,0,4.1,37.42a24,24,0,0,0,6.48,6.48,24,24,0,0,0,4.08,2.21,23.64,23.64,0,0,0,4.51,1.4,24,24,0,0,0,9.67,0,23.64,23.64,0,0,0,4.51-1.4,23.91,23.91,0,0,0,4.08-2.21,24,24,0,0,0,6.48-6.48,24,24,0,0,0,3.62-8.59,24.3,24.3,0,0,0,0-9.67h0Z"/>
    </g>
  </symbol>

  <symbol id="dropbox" viewBox="0 0 48 48">
    <g class="svg-icon">
      <path d="M24,27.53l-9.88,8.31L0,26.55l9.76-7.88L24,27.53l14.24-8.86L48,26.55,33.88,35.85,24,27.53h0Zm-9.88-26L0,10.79l9.76,7.88L24,9.81ZM24,29.32l-9.91,8.29L9.88,34.82v3.13L24,46.5l14.15-8.55V34.82l-4.24,2.79ZM48,10.79L33.88,1.5,24,9.81l14.24,8.86Z"/>
    </g>
  </symbol>

  <symbol id="evernote" viewBox="0 0 48 48">
    <g class="svg-icon">
      <path d="M33.79,22.7a9.58,9.58,0,0,0-1.85.11c0.16-1.32.71-2.94,2.63-2.88C36.71,20,37,22,37,23.41a8.73,8.73,0,0,0-3.22-.7M42.91,8.35a4,4,0,0,0-2.52-3.23A33.16,33.16,0,0,0,34.22,4a47.94,47.94,0,0,0-6.54-.2,3.89,3.89,0,0,0-2.16-3A16.7,16.7,0,0,0,17.38.27,4.36,4.36,0,0,0,15,1.79a3.54,3.54,0,0,0-.59,2.1c0,0.52,0,1.75,0,2.85s0,2.08,0,2.09a1.77,1.77,0,0,1-1.77,1.77H8.21A5.4,5.4,0,0,0,6,11,3.15,3.15,0,0,0,4.7,12,4.56,4.56,0,0,0,4,14.85a24.29,24.29,0,0,0,.21,2.44C4.38,18.53,5.72,27.23,7,29.88a3.23,3.23,0,0,0,1.8,1.91,48.17,48.17,0,0,0,9.44,2.27c2.32,0.3,3.77.92,4.64-.9,0,0,.17-0.45.41-1.11a18.14,18.14,0,0,0,.86-5.79,0.11,0.11,0,1,1,.22,0c0,1-.2,4.71,2.57,5.69a32.9,32.9,0,0,0,5.65,1c2.08,0.24,3.59,1.06,3.59,6.41,0,3.26-.68,3.7-4.24,3.7-2.89,0-4,.07-4-2.23,0-1.86,1.83-1.67,3.19-1.67,0.61,0,.17-0.45.17-1.6s0.71-1.8,0-1.82c-4.7-.13-7.47,0-7.47,5.89,0,5.36,2,6.35,8.71,6.35,5.23,0,7.07-.17,9.23-6.9a62.43,62.43,0,0,0,2.09-12.19c0.4-4.3-.37-17.29-1-20.56M8,9.3h4.49a0.47,0.47,0,0,0,.46-0.47S12.9,5,12.9,3.89h0a5.1,5.1,0,0,1,.5-2.29l0.15-.29-0.05,0L4.78,10a0.1,0.1,0,0,0,0,.05l0.46-.23A6.67,6.67,0,0,1,8,9.3"/>
    </g>
  </symbol>

  <symbol id="facebook" viewBox="0 0 48 48">
    <g class="svg-icon">
      <path d="M25.64,48h-23A2.65,2.65,0,0,1,0,45.35V2.65A2.65,2.65,0,0,1,2.65,0h42.7A2.65,2.65,0,0,1,48,2.65v42.7A2.65,2.65,0,0,1,45.35,48H33.12V29.41h6.24l0.93-7.24H33.12V17.54c0-2.1.58-3.53,3.59-3.53h3.84V7.54A51.28,51.28,0,0,0,35,7.25c-5.53,0-9.32,3.38-9.32,9.58v5.34H19.38v7.24h6.26V48h0Z"/>
    </g>
  </symbol>

  <symbol id="feedly" viewBox="0 0 48 48">
    <g class="svg-icon">
      <path d="M27,27.52c-2.31,2.28-4.63,4.56-6.93,6.86-0.65.78-1.78,0.53-2.67,0.46a12.15,12.15,0,0,1-2.2-2.07c-0.46-.43,0-1,0.32-1.31Q19,28,22.44,24.6a7.85,7.85,0,0,1,1.31-1.18A1.25,1.25,0,0,1,25,24c0.77,0.82,1.65,1.53,2.35,2.41a0.85,0.85,0,0,1-.33,1.1M27.23,38.3a17.29,17.29,0,0,1-2.09,2,5.82,5.82,0,0,1-2.15,0,8.39,8.39,0,0,1-1.7-1.49c-0.4-.38-1-1-0.51-1.5,0.86-.95,1.78-1.85,2.73-2.71a0.87,0.87,0,0,1,1.17.17Q25.92,36,27.1,37.2a0.74,0.74,0,0,1,.13,1.1M14.45,28.83c-0.67.79-1.85,0.58-2.76,0.44a14.48,14.48,0,0,1-2.18-2.15c-0.37-.43.1-0.89,0.4-1.19q6.09-6,12.16-12a17,17,0,0,1,1.65-1.56c0.53-.26.93,0.3,1.28,0.6,0.75,0.79,1.59,1.48,2.27,2.32a0.9,0.9,0,0,1-.34,1.2q-6.25,6.17-12.5,12.35m30.83-6.93L28.81,5.63a9,9,0,0,0-2.62-2.11,5.33,5.33,0,0,0-6,1.14L1.67,23A5.34,5.34,0,0,0,.17,25.5a5.13,5.13,0,0,0,1.43,5l13.06,12.9a5.23,5.23,0,0,0,3.73,1.53c3.56,0,7.12,0,10.68,0a5.68,5.68,0,0,0,4.36-1.6q5.92-5.83,11.82-11.67a15.78,15.78,0,0,0,1.86-2,5.28,5.28,0,0,0,.56-4.76,8.61,8.61,0,0,0-2.4-3"/>
    </g>
  </symbol>

  <symbol id="flickr" viewBox="0 0 48 48">
    <g class="svg-icon">
      <path d="M48,24A10.57,10.57,0,1,1,37.43,13.54,10.51,10.51,0,0,1,48,24ZM21.15,24A10.52,10.52,0,0,1,10.57,34.46a10.46,10.46,0,1,1,0-20.92A10.52,10.52,0,0,1,21.15,24Z"/>
    </g>
  </symbol>

  <symbol id="foursquare" viewBox="0 0 48 48">
    <g class="svg-icon">
      <path d="M35.33,6.93l-1.14,5.55a1.43,1.43,0,0,1-1.36,1.12H23a2,2,0,0,0-2,2v1.22a2,2,0,0,0,2,2H31.3a1.33,1.33,0,0,1,1.27,1.58c-0.16.85-1,5.19-1.14,5.65a1.39,1.39,0,0,1-1.36,1.12H23.24c-1.43,0-1.72.07-2.57,1.12s-8.32,10.51-8.32,10.51-0.13.07-.13,0V6.67a1.38,1.38,0,0,1,1.36-1.38h20.5a1.34,1.34,0,0,1,1.23,1.64M36.82,0H11.52A4.23,4.23,0,0,0,7,4.34V45c0,2,1,2.6,1.56,2.83a3,3,0,0,0,3.05-.66L23.83,32.78a0.46,0.46,0,0,1,.42-0.23h7.6c3.25,0,3.87-2.27,4.22-3.65,0.29-1.15,3.64-17.57,4.68-22.76,0.78-4-.23-6.14-3.93-6.14"/>
    </g>
  </symbol>

  <symbol id="github" viewBox="0 0 48 48">
    <g class="svg-icon">
      <path d="M24,0.5a24.11,24.11,0,0,0-7.58,47,1.21,1.21,0,0,0,1.64-1.16c0-.57,0-2.09,0-4.1C11.34,43.66,9.93,39,9.93,39c-1.09-2.78-2.66-3.52-2.66-3.52C5.09,34,7.44,34,7.44,34a5,5,0,0,1,3.68,2.48c2.14,3.68,5.62,2.62,7,2a5.15,5.15,0,0,1,1.52-3.22c-5.33-.61-10.93-2.67-10.93-11.91a9.33,9.33,0,0,1,2.47-6.47,8.69,8.69,0,0,1,.23-6.38s2-.65,6.6,2.47a22.65,22.65,0,0,1,12,0c4.58-3.12,6.59-2.47,6.59-2.47a8.68,8.68,0,0,1,.24,6.38,9.32,9.32,0,0,1,2.47,6.47c0,9.26-5.61,11.29-11,11.89A5.76,5.76,0,0,1,30,39.69c0,3.22,0,5.82,0,6.61a1.2,1.2,0,0,0,1.65,1.16A24.11,24.11,0,0,0,24,.5"/>
    </g>
  </symbol>

  <symbol id="google" viewBox="0 0 48 48">
    <g class="svg-icon">
      <path d="M24.33,19.25v9.5H37.22c-2,6.16-5.16,9.52-12.89,9.52A14,14,0,0,1,10.4,24,14,14,0,0,1,24.33,9.74a13.46,13.46,0,0,1,9.26,3.5c2-2,1.8-2.26,6.79-7A23.67,23.67,0,0,0,24.33,0a24,24,0,0,0,0,48C44,48,48.82,30.75,47.23,19.25H24.33Z"/>
    </g>
  </symbol>

  <symbol id="googleplus" viewBox="0 0 48 48">
    <g class="svg-icon">
      <path d="M42.72,21.28V16H38.94v5.29H33.51v3.78h5.43V30.5h3.77V25.06H48V21.28H42.72ZM15.25,21v6h8.24c-1.29,3.92-3.3,6.06-8.24,6.06A8.94,8.94,0,0,1,6.34,24a8.94,8.94,0,0,1,8.91-9.07,8.63,8.63,0,0,1,5.92,2.23c1.25-1.26,1.15-1.44,4.34-4.45A15.26,15.26,0,1,0,15.25,39.27c12.59,0,15.66-11,14.64-18.3H15.25Z"/>
    </g>
  </symbol>

  <symbol id="hangouts" viewBox="0 0 48 48">
    <g class="svg-icon">
      <path d="M44.18,16.93A20.44,20.44,0,0,0,39,6.53,20.45,20.45,0,0,0,26.41.13,9.88,9.88,0,0,1,25.26,0H22.55c0,0.07-.09,0-0.14,0C21.71,0.11,21,.19,20.33.32A20.19,20.19,0,0,0,8,7.77a20.11,20.11,0,0,0-4.4,11.3A20.69,20.69,0,0,0,4,25.14a19.6,19.6,0,0,0,1.49,4.3l0.18,0.35a20.64,20.64,0,0,0,4.26,5.75,20.36,20.36,0,0,0,13.77,5.6,0.25,0.25,0,0,1,.3.31c0,2.1,0,4.19,0,6.29,0,0.08,0,.16,0,0.26l0.15-.06a43,43,0,0,0,10.73-7.12q1-.87,1.84-1.83l0.75-.82c0.39-.42.73-0.89,1.09-1.33s0.8-1,1.18-1.59A26.51,26.51,0,0,0,42,31.47c0.32-.67.62-1.34,0.88-2l0,0a24.74,24.74,0,0,0,1.44-5.85c0.09-.7.14-1.4,0.18-2.11a19.62,19.62,0,0,0-.29-4.51h0ZM16.71,29.76a0.5,0.5,0,0,1-.56-0.37q0-1.16,0-2.32a0.94,0.94,0,0,1,.1-0.67,0.64,0.64,0,0,1,.33-0.2,4.23,4.23,0,0,0,1.18-.4A2.72,2.72,0,0,0,19.05,24l0.08-.36H14.26a1.55,1.55,0,0,1-.42,0,1,1,0,0,1-.73-0.92q0-3.7,0-7.41a1.12,1.12,0,0,1,.33-1A0.92,0.92,0,0,1,14.05,14h7.17c0.63,0,1,.2,1,1.29,0,0.18,0,5.72,0,8.41a6,6,0,0,1-2,4.51L20,28.4a6.4,6.4,0,0,1-2.23,1.15A9,9,0,0,1,16.71,29.76Zm14.21-.35-0.05,0a11,11,0,0,1-1.41.31,0.52,0.52,0,0,1-.64-0.52c0-.26,0-0.52,0-0.77V27.07c0-.1,0-0.2,0-0.3a0.56,0.56,0,0,1,.58-0.61,3.15,3.15,0,0,0,1.51-.71,3,3,0,0,0,.9-1.78h-5a1,1,0,0,1-1-1.06q0-3.66,0-7.32s0,0,0-.07a1,1,0,0,1,.49-1.08A0.93,0.93,0,0,1,26.77,14H33.9a1.11,1.11,0,0,1,1,1.3c0,0.34,0,5.73,0,8.42a6.14,6.14,0,0,1-3.72,5.59L31,29.38a0.17,0.17,0,0,0,.14.06A0.17,0.17,0,0,1,31,29.38Z"/>
    </g>
  </symbol>

  <symbol id="instagram" viewBox="0 0 48 48">
    <g class="svg-icon">
      <path d="M42,43.5H6A1.5,1.5,0,0,1,4.5,42V19.5h6a9.16,9.16,0,0,0-1,4.56,14.6,14.6,0,0,0,29.2,0c0-1.33-.19-3.4-1.16-4.56h6V42A1.5,1.5,0,0,1,42,43.5M24.06,14.85a9.21,9.21,0,1,1-9.23,9.21,9.22,9.22,0,0,1,9.23-9.21M36,6h4.5A1.5,1.5,0,0,1,42,7.5V12a1.5,1.5,0,0,1-1.5,1.5H36A1.5,1.5,0,0,1,34.5,12V7.5A1.5,1.5,0,0,1,36,6m6.29-6H5.71A5.7,5.7,0,0,0,0,5.69V42.31A5.7,5.7,0,0,0,5.71,48H42.29A5.7,5.7,0,0,0,48,42.31V5.69A5.7,5.7,0,0,0,42.29,0"/>
    </g>
  </symbol>

  <symbol id="invision" viewBox="0 0 48 48">
    <g class="svg-icon">
      <path d="M43.65,0H4.35A4.35,4.35,0,0,0,0,4.35v39.3A4.35,4.35,0,0,0,4.35,48h39.3A4.35,4.35,0,0,0,48,43.65V4.35A4.35,4.35,0,0,0,43.65,0ZM16,9.32a2.89,2.89,0,1,1-2.93,2.89A2.9,2.9,0,0,1,16,9.32ZM35.66,37c-3,0-4.4-1.77-4.4-4.18a7.65,7.65,0,0,1,.3-2.16L33,25.54A5.17,5.17,0,0,0,33.2,24a2.41,2.41,0,0,0-2.59-2.63c-2,0-3.36,1.45-4.05,4.26L23.8,36.68H19l0.87-3.48C18.42,35.53,16.45,37,14,37c-2.93,0-4.31-1.69-4.31-4.23A9.93,9.93,0,0,1,10,30.57l2.2-9H8.75l1-3.82H18L14.75,30.6a8.13,8.13,0,0,0-.3,2,1.08,1.08,0,0,0,1,1.2c0.38,0.09,3.45,0,5.12-3.68l2.12-8.51H19.27l1-3.82h7.37l-0.95,4.33c1.29-2.42,3.88-4.71,6.42-4.71,2.72,0,5,1.94,5,5.64a10.94,10.94,0,0,1-.47,3.14l-1.38,5A5.72,5.72,0,0,0,36,32.48c0,0.86.35,1.29,1,1.29s1.47-.48,2.41-3.1l1.9,0.73C40.23,35.33,38.2,37,35.66,37Z"/>
    </g>
  </symbol>

  <symbol id="lastfm" viewBox="0 0 48 48">
    <g class="svg-icon">
      <path d="M21.17,34.55l-1.76-4.84a10.43,10.43,0,0,1-7.15,3.23c-3.79,0-6.49-3.34-6.49-8.68,0-6.85,3.41-9.3,6.76-9.3,4.84,0,6.38,3.17,7.7,7.24L22,27.76c1.76,5.4,5.06,9.74,14.57,9.74C43.38,37.5,48,35.38,48,29.82c0-4.51-2.53-6.85-7.26-8l-3.52-.78c-2.42-.56-3.13-1.56-3.13-3.23,0-1.89,1.48-3,3.9-3,2.64,0,4.07,1,4.29,3.4l5.5-.67c-0.44-5-3.85-7.07-9.46-7.07-4.95,0-9.79,1.89-9.79,8,0,3.78,1.81,6.18,6.38,7.29l3.74,0.89c2.8,0.67,3.74,1.84,3.74,3.45,0,2.06-2,2.89-5.72,2.89-5.55,0-7.86-3-9.18-7l-1.82-5.57c-2.31-7.24-6-9.91-13.3-9.91C4.29,10.5,0,15.68,0,24.47c0,8.46,4.29,13,12,13,6.21,0,9.18-3,9.18-3"/>
    </g>
  </symbol>

  <symbol id="linkedin" viewBox="0 0 48 48">
    <g class="svg-icon">
      <path d="M48,45.82H37.39V30.48c0-4-1.66-6.76-5.31-6.76A5.35,5.35,0,0,0,27,27.35a6.75,6.75,0,0,0-.23,2.42v16H16.28s0.14-27.17,0-29.64H26.79v4.65c0.62-2,4-4.94,9.34-4.94C42.78,15.89,48,20.15,48,29.34V45.82h0ZM5.65,12.47H5.58C2.2,12.47,0,10.2,0,7.33S2.26,2.18,5.71,2.18s5.57,2.21,5.64,5.14-2.19,5.15-5.71,5.15h0ZM1.21,16.17h9.36V45.82H1.21V16.17h0Z"/>
    </g>
  </symbol>

  <symbol id="medium" viewBox="0 0 48 48">
    <g class="svg-icon">
      <path d="M47.85,11.22h0L33.33,4A1.53,1.53,0,0,0,33,3.9a1.62,1.62,0,0,0-.4,0,1.66,1.66,0,0,0-1.41.76L22.88,18,33.35,34.91,47.9,11.45A0.17,0.17,0,0,0,47.85,11.22ZM18.29,15v15.3L32,37.09ZM34.06,38.12l11.28,5.6c1.47,0.73,2.66.22,2.66-1.14V15.63ZM15.91,11.24l-14.14-7A1.63,1.63,0,0,0,1,4,1.1,1.1,0,0,0,0,5.31v30.3a2.62,2.62,0,0,0,1.33,2.13l12.46,6.18a2,2,0,0,0,.9.23A1.38,1.38,0,0,0,16,42.57V11.38A0.15,0.15,0,0,0,15.91,11.24Z"/>
    </g>
  </symbol>

  <symbol id="messenger" viewBox="0 0 48 48">
    <g class="svg-icon">
      <path d="M24,0C10.75,0,0,9.95,0,22.22a21.61,21.61,0,0,0,8.94,17.3V48l8.17-4.48a25.79,25.79,0,0,0,6.88.93c13.25,0,24-9.95,24-22.22S37.25,0,24,0h0Zm2.39,29.93-6.11-6.52L8.35,29.93,21.47,16l6.26,6.52L39.5,16,26.39,29.93h0Z"/>
    </g>
  </symbol>

  <symbol id="paypal" viewBox="0 0 48 48">
    <g class="svg-icon">
      <path d="M38.41,3.62C36.17,1.09,32.12,0,26.94,0h-15A2.15,2.15,0,0,0,9.78,1.8L3.52,41.19a1.28,1.28,0,0,0,1.28,1.48h9.28L16.41,28l-0.07.46a2.14,2.14,0,0,1,2.12-1.8h4.41c8.67,0,15.45-3.49,17.43-13.59,0.06-.3.15-0.87,0.15-0.87C41,8.46,40.45,5.92,38.41,3.62ZM42.8,14.11c-2.16,9.94-9,15.21-19.94,15.21h-4L16,48h6.42a1.88,1.88,0,0,0,1.86-1.58l0.08-.4,1.48-9.27,0.1-.51a1.88,1.88,0,0,1,1.86-1.58h1.17c7.58,0,13.52-3.06,15.25-11.89C44.86,19.23,44.52,16.26,42.8,14.11Z"/>
    </g>
  </symbol>

  <symbol id="periscope" viewBox="0 0 48 48">
    <g class="svg-icon">
      <path d="M42.5,18.74C42.5,32.68,27.71,48,24,48S5.5,32.68,5.5,18.74A18.62,18.62,0,0,1,24,0,18.62,18.62,0,0,1,42.5,18.74ZM24,7.43a11.09,11.09,0,0,0-2.58.31,4.57,4.57,0,1,1-6.51,4.4,11.42,11.42,0,0,0-2.13,6.66A11.23,11.23,0,1,0,24,7.43Z"/>
    </g>
  </symbol>

  <symbol id="photoshop" viewBox="0 0 48 48">
    <g class="svg-icon">
      <path d="M0,0.5v47H48V0.5H0Zm16,25c-0.83,0-1.11,0-1.7,0v8.43a0.22,0.22,0,0,1-.26.26H10.73a0.22,0.22,0,0,1-.26-0.26V10.34h0A0.49,0.49,0,0,1,11,10.08C12.35,10,14.42,10,16.58,10c6,0,8.4,3.34,8.4,7.6C25,23.14,21,25.54,16,25.54Zm15.71,9a9.44,9.44,0,0,1-4.47-.94,0.31,0.31,0,0,1-.17-0.35V30c0-.22.11-0.29,0.26-0.18a8.06,8.06,0,0,0,4.39,1.3c1.72,0,2.44-.72,2.44-1.71,0-.79-0.5-1.49-2.71-2.64-3.1-1.49-4.39-3-4.39-5.53,0-2.83,2.2-5.18,6-5.18a10,10,0,0,1,3.91.61,0.49,0.49,0,0,1,.22.44v3a0.22,0.22,0,0,1-.33.22,7.33,7.33,0,0,0-3.8-1c-1.72,0-2.31.88-2.31,1.6s0.39,1.34,2.71,2.55C36.94,25.21,38,26.81,38,29.16,38,32.68,35.35,34.56,31.75,34.56ZM14.36,22c0.5,0,.89,0,1.77,0,2.55,0,5-.9,5-4.39,0-2.79-1.72-4.19-4.63-4.19-0.87,0-1.7,0-2.09.07V22h0Z"/>
    </g>
  </symbol>

  <symbol id="pinterest" viewBox="0 0 48 48">
    <g class="svg-icon">
      <path d="M24,0a24,24,0,0,0-9.63,46,21.24,21.24,0,0,1,.41-5.51c0.46-1.95,3.09-13.08,3.09-13.08a9.24,9.24,0,0,1-.76-3.8c0-3.56,2.06-6.21,4.63-6.21C23.92,17.38,25,19,25,21c0,2.19-1.4,5.48-2.12,8.52a3.71,3.71,0,0,0,3.79,4.62c4.55,0,7.61-5.84,7.61-12.76,0-5.26-3.54-9.2-10-9.2A11.36,11.36,0,0,0,12.45,23.66,6.92,6.92,0,0,0,14,28.37a1.16,1.16,0,0,1,.34,1.34c-0.11.44-.38,1.5-0.49,1.92a0.83,0.83,0,0,1-1.2.6c-3.36-1.37-4.92-5-4.92-9.17,0-6.82,5.75-15,17.15-15,9.16,0,15.2,6.64,15.2,13.75,0,9.42-5.23,16.45-13,16.45-2.59,0-5-1.4-5.86-3,0,0-1.39,5.53-1.69,6.6A20,20,0,0,1,17.2,47,24,24,0,1,0,24,0"/>
    </g>
  </symbol>

  <symbol id="reddit" viewBox="0 0 48 48">
    <g class="svg-icon">
      <path d="M31.14,30.33a3.28,3.28,0,0,1-3.3-3.22,3.32,3.32,0,0,1,3.3-3.27,3.28,3.28,0,0,1,3.25,3.27,3.23,3.23,0,0,1-3.25,3.22m0.76,6.25C30.23,38.23,27.65,39,24,39H24c-3.63,0-6.21-.8-7.87-2.46a1.29,1.29,0,0,1,0-1.84,1.32,1.32,0,0,1,1.85,0c1.15,1.14,3.12,1.7,6,1.7H24c2.9,0,4.87-.56,6-1.7a1.32,1.32,0,0,1,1.85,0,1.29,1.29,0,0,1,0,1.84M13.61,27.11a3.32,3.32,0,0,1,3.3-3.27,3.28,3.28,0,0,1,3.25,3.27,3.23,3.23,0,0,1-3.25,3.22,3.28,3.28,0,0,1-3.3-3.22M40,6.6a2.18,2.18,0,1,1-2.2,2.18A2.2,2.2,0,0,1,40,6.6m8,17a5.77,5.77,0,0,0-9.4-4.43,27.33,27.33,0,0,0-12.77-3.79l2.5-7.82,6.86,1.6a4.79,4.79,0,1,0,.53-2.55l-8-1.86a1.31,1.31,0,0,0-1.55.87l-3.1,9.71A27.84,27.84,0,0,0,9.32,19.07,5.77,5.77,0,0,0,0,23.57a5.69,5.69,0,0,0,2.5,4.7,10,10,0,0,0-.1,1.37c0,3.94,2.31,7.61,6.51,10.32a27.88,27.88,0,0,0,15,4,27.88,27.88,0,0,0,15-4c4.2-2.71,6.51-6.38,6.51-10.32a10,10,0,0,0-.08-1.25A5.7,5.7,0,0,0,48,23.57"/>
    </g>
  </symbol>

  <symbol id="rss" viewBox="0 0 48 48">
    <g class="svg-icon">
      <path d="M2,39.71A6.29,6.29,0,1,1,8.29,46,6.29,6.29,0,0,1,2,39.71ZM46,46H37.62A35.66,35.66,0,0,0,2,10.38V2A44.05,44.05,0,0,1,46,46ZM31.33,46H23A21,21,0,0,0,2,25V16.67A29.37,29.37,0,0,1,31.33,46Z"/>
    </g>
  </symbol>

  <symbol id="shopify" viewBox="0 0 48 48">
    <g class="svg-icon">
      <path d="M39.79,9.35A0.46,0.46,0,0,0,39.37,9l-3.84-.29L32.7,5.84a1.15,1.15,0,0,0-1-.13l-1.43.44c-0.85-2.46-2.36-4.73-5-4.73H25A3.21,3.21,0,0,0,22.52,0c-6.16,0-9.1,7.74-10,11.67L8.18,13c-1.34.42-1.38,0.46-1.55,1.73C6.5,15.7,3,42.87,3,42.87L30.24,48,45,44.79S39.82,9.59,39.79,9.35Zm-15-1.77c0,0.09,0,.18,0,0.27L20,9.32C21,5.77,22.68,4.05,24.18,3.4A11.56,11.56,0,0,1,24.81,7.57ZM22.35,1.66a1.39,1.39,0,0,1,.79.27c-2,.93-4.09,3.29-5,8l-3.76,1.17C15.44,7.5,17.92,1.66,22.35,1.66Zm1.06,20.93a8.34,8.34,0,0,0-3.55-.85c-2.87,0-3,1.81-3,2.26,0,2.49,6.45,3.44,6.45,9.26,0,4.58-2.89,7.53-6.79,7.53a9.42,9.42,0,0,1-7.07-2.92l1.25-4.16s2.46,2.12,4.53,2.12A1.83,1.83,0,0,0,17.13,34c0-3.24-5.29-3.39-5.29-8.71,0-4.48,3.2-8.82,9.66-8.82a7.92,7.92,0,0,1,3.72.72Zm3-15.26c0-.16,0-0.32,0-0.5a11.42,11.42,0,0,0-.55-3.74c1.36,0.17,2.27,1.73,2.85,3.52Z"/>
    </g>
  </symbol>

  <symbol id="sketch" viewBox="0 0 48 48">
    <g class="svg-icon">
      <path d="M47.17,12.72L39.94,7.24a2,2,0,0,0-.55-0.41L34.53,3.14a2.09,2.09,0,0,0-1.26-.42H14.73a2.08,2.08,0,0,0-1.26.42L0.83,12.72a2.09,2.09,0,0,0-.4,2.93L22.34,44.46a2.08,2.08,0,0,0,3.32,0L47.57,15.64a2.09,2.09,0,0,0-.4-2.93h0ZM15.43,6.89H32.57l2.36,1.79-3.06,2.26L17,10.82,13.19,8.59l2.24-1.7h0Zm2,8.11,14,0.11,3.93,5.48H13.71L17.48,15h0ZM9.6,11.31l3.82,2.26L9,20.07,5,14.78,9.6,11.31h0ZM24,39.75l-11.41-15H35.41L24,39.75h0Zm15.59-20.5-4.14-5.77L38.4,11.3,43,14.78l-3.4,4.47h0Z"/>
    </g>
  </symbol>

  <symbol id="skype" viewBox="0 0 48 48">
    <g class="svg-icon">
      <path d="M46.62,29.1a22.32,22.32,0,0,0,.53-4.85A22.73,22.73,0,0,0,24.25,1.68,23.32,23.32,0,0,0,20.34,2a13.34,13.34,0,0,0-7.06-2A13.18,13.18,0,0,0,0,13.09a12.91,12.91,0,0,0,1.82,6.62,22.44,22.44,0,0,0-.46,4.53A22.73,22.73,0,0,0,24.25,46.82a23.39,23.39,0,0,0,4.19-.38A13.37,13.37,0,0,0,34.72,48,13.18,13.18,0,0,0,48,34.91,12.88,12.88,0,0,0,46.62,29.1ZM36,35a10.37,10.37,0,0,1-4.65,3.48,18.85,18.85,0,0,1-7.15,1.24,17.67,17.67,0,0,1-8.2-1.7,10.63,10.63,0,0,1-3.77-3.3,7.11,7.11,0,0,1-1.46-4.08,2.82,2.82,0,0,1,1-2.13,3.38,3.38,0,0,1,2.39-.88,3.06,3.06,0,0,1,2,.69,5.18,5.18,0,0,1,1.34,1.93,11.22,11.22,0,0,0,1.31,2.3,5.09,5.09,0,0,0,1.92,1.47,8,8,0,0,0,3.32.58,8.16,8.16,0,0,0,4.61-1.19,3.3,3.3,0,0,0,1.7-2.82,2.77,2.77,0,0,0-.88-2.14A6.41,6.41,0,0,0,27,27.18c-1-.32-2.45-0.66-4.2-1a33.49,33.49,0,0,1-6-1.77,9.87,9.87,0,0,1-3.93-2.83A7,7,0,0,1,11.39,17a7.26,7.26,0,0,1,1.56-4.57,9.63,9.63,0,0,1,4.44-3,19.67,19.67,0,0,1,6.72-1,18.35,18.35,0,0,1,5.34.7,11.82,11.82,0,0,1,3.78,1.86,8.12,8.12,0,0,1,2.23,2.47A5.39,5.39,0,0,1,36.17,16a3,3,0,0,1-.94,2.18,3.16,3.16,0,0,1-2.35,1,2.92,2.92,0,0,1-2-.61,7.39,7.39,0,0,1-1.37-1.79,7.48,7.48,0,0,0-2.05-2.51,6.51,6.51,0,0,0-3.82-.87,7.24,7.24,0,0,0-4,1,2.58,2.58,0,0,0-1.42,2.16,2,2,0,0,0,.46,1.31,4.06,4.06,0,0,0,1.36,1,10.06,10.06,0,0,0,1.84.7c0.63,0.18,1.7.43,3.17,0.77,1.85,0.39,3.56.83,5.06,1.31a16.25,16.25,0,0,1,3.92,1.76A7.76,7.76,0,0,1,36.67,26a8,8,0,0,1,.93,4A8.48,8.48,0,0,1,36,35Z"/>
    </g>
  </symbol>

  <symbol id="slack" viewBox="0 0 48 48">
    <g class="svg-icon">
      <path d="M46,17.4C41,0.91,33.9-2.94,17.4,2S-2.94,14.1,2,30.6,14.11,50.94,30.6,46,50.94,33.89,46,17.4M37.65,28.11l-3.11,1,1.08,3.22A2.49,2.49,0,0,1,34,35.52a2.45,2.45,0,0,1-.85.13,2.49,2.49,0,0,1-2.3-1.7l-1.08-3.22-6.41,2.15,1.08,3.22a2.49,2.49,0,1,1-4.72,1.58l-1.08-3.22-3.11,1A2.49,2.49,0,0,1,14,30.78l3.11-1L15,23.57l-3.11,1a2.49,2.49,0,0,1-1.58-4.72l3.11-1-1.08-3.22a2.49,2.49,0,0,1,4.72-1.58l1.08,3.22,6.41-2.15L23.51,11.9a2.49,2.49,0,0,1,4.72-1.58l1.08,3.22,3.11-1A2.49,2.49,0,0,1,34,17.22l-3.11,1L33,24.43l3.11-1A2.49,2.49,0,0,1,37.65,28.11ZM19.76,22l2.07,6.17L28.24,26l-2.07-6.17Z"/>
    </g>
  </symbol>

  <symbol id="snapchat" viewBox="0 0 48 48">
    <g class="svg-icon">
      <path d="M24.46,1.5H23.52A13.94,13.94,0,0,0,18,2.67,12.23,12.23,0,0,0,14.53,5,13.06,13.06,0,0,0,11.6,9.17c-1.07,2.4-.82,6.44-0.61,9.68h0c0,0.35,0,.71.07,1.06a1.88,1.88,0,0,1-.79.15,5.22,5.22,0,0,1-2.14-.57,1.92,1.92,0,0,0-.81-0.17,2.89,2.89,0,0,0-1.44.4,2,2,0,0,0-1,1.3,1.79,1.79,0,0,0,.68,1.68,5.86,5.86,0,0,0,1.79,1C7.54,23.82,7.78,23.9,8,24c0.89,0.28,2.23.71,2.58,1.53a2,2,0,0,1-.23,1.63l0,0.05A15.79,15.79,0,0,1,8,30.93,13.58,13.58,0,0,1,5,33.51,10.74,10.74,0,0,1,.94,35.1,1.12,1.12,0,0,0,0,36.27a1.47,1.47,0,0,0,.12.49h0a3,3,0,0,0,1.62,1.39,18.61,18.61,0,0,0,4.69,1.22,5.74,5.74,0,0,1,.29,1c0.08,0.36.16,0.73,0.28,1.13a1.23,1.23,0,0,0,1.29.94,6.2,6.2,0,0,0,1.1-.15A12.47,12.47,0,0,1,11.91,42a11.06,11.06,0,0,1,1.8.15,8.56,8.56,0,0,1,3.36,1.74c1.72,1.21,3.66,2.58,6.63,2.58H24.3c3,0,4.91-1.37,6.63-2.58h0a8.57,8.57,0,0,1,3.36-1.73,11.07,11.07,0,0,1,1.8-.15,12.6,12.6,0,0,1,2.52.27,6,6,0,0,0,1.1.14h0.06A1.21,1.21,0,0,0,41,41.51c0.11-.39.2-0.75,0.28-1.11a5.84,5.84,0,0,1,.29-1,18.64,18.64,0,0,0,4.69-1.22,3,3,0,0,0,1.62-1.38A1.43,1.43,0,0,0,48,36.27a1.12,1.12,0,0,0-.94-1.17c-6.42-1.05-9.31-7.63-9.43-7.91l0-.05a2,2,0,0,1-.23-1.63c0.35-.82,1.69-1.25,2.58-1.53,0.26-.08.5-0.16,0.7-0.24a5.4,5.4,0,0,0,1.91-1.14,1.81,1.81,0,0,0,.58-1.31,2.06,2.06,0,0,0-1.54-1.79,2.76,2.76,0,0,0-1-.2,2.34,2.34,0,0,0-1,.2,5.48,5.48,0,0,1-2,.57,1.81,1.81,0,0,1-.66-0.15c0-.3,0-0.61.06-0.93V18.86c0.21-3.25.46-7.29-.61-9.69A13.08,13.08,0,0,0,33.46,5a12.26,12.26,0,0,0-3.51-2.31A14,14,0,0,0,24.46,1.5"/>
    </g>
  </symbol>

  <symbol id="soundcloud" viewBox="0 0 48 48">
    <g class="svg-icon">
      <path d="M0,32.65A1.58,1.58,0,0,0,.65,34,1.75,1.75,0,0,0,2,34.35a1.56,1.56,0,0,0,1-.5,2,2,0,0,0,.28-1.2V26.08a1.63,1.63,0,0,0-.48-1.19,1.58,1.58,0,0,0-1.17-.49,1.56,1.56,0,0,0-1.15.49A1.63,1.63,0,0,0,0,26.08v6.57H0Zm5.14,2.81a1.13,1.13,0,0,0,.46,1,2,2,0,0,0,1.17.33A2,2,0,0,0,8,36.45a1.13,1.13,0,0,0,.46-1V20.15A1.6,1.6,0,0,0,7.94,19a1.58,1.58,0,0,0-1.17-.49A1.56,1.56,0,0,0,5.62,19a1.6,1.6,0,0,0-.48,1.17V35.46h0Zm5.11,0.72a1.12,1.12,0,0,0,.47,1,2.06,2.06,0,0,0,1.21.33,2,2,0,0,0,1.17-.33,1.13,1.13,0,0,0,.46-1v-14a1.67,1.67,0,0,0-.48-1.2,1.54,1.54,0,0,0-1.15-.5,1.6,1.6,0,0,0-1.18.5,1.65,1.65,0,0,0-.49,1.2v14h0Zm5.14,0.07q0,1.25,1.65,1.25t1.65-1.25V13.6q0-1.9-1.14-2.15a1.59,1.59,0,0,0-1.45.43,2.14,2.14,0,0,0-.71,1.72V36.25h0Zm5.23,0.66V12.27a1.28,1.28,0,0,1,.69-1.4,12.59,12.59,0,0,1,3-.36,12.94,12.94,0,0,1,6.37,1.63,13.19,13.19,0,0,1,4.77,4.45,13.39,13.39,0,0,1,2.11,6.22,7.49,7.49,0,0,1,8.25,1.65,7.68,7.68,0,0,1,0,10.8,7.23,7.23,0,0,1-5.33,2.24L21,37.48a0.52,0.52,0,0,1-.3-0.25,0.68,0.68,0,0,1-.1-0.32h0Z"/>
    </g>
  </symbol>

  <symbol id="spotify" viewBox="0 0 48 48">
    <g class="svg-icon">
      <path d="M38.16,21.36c-7.68-4.56-20.52-5-27.84-2.76A2.2,2.2,0,0,1,9,14.4c8.52-2.52,22.56-2,31.44,3.24a2.32,2.32,0,0,1,.84,3.12,2.51,2.51,0,0,1-3.12.6m-0.24,6.72a1.81,1.81,0,0,1-2.52.6c-6.48-4-16.32-5.16-23.88-2.76a1.82,1.82,0,1,1-1.08-3.48c8.76-2.64,19.56-1.32,27,3.24a1.69,1.69,0,0,1,.48,2.4M35,34.68a1.43,1.43,0,0,1-2,.48c-5.64-3.48-12.72-4.2-21.12-2.28A1.48,1.48,0,0,1,11.16,30c9.12-2,17-1.2,23.28,2.64a1.44,1.44,0,0,1,.6,2M24,0A24,24,0,1,0,48,24,24.07,24.07,0,0,0,24,0"/>
    </g>
  </symbol>

  <symbol id="tumblr" viewBox="0 0 48 48">
    <g class="svg-icon">
      <path d="M35.24,38.34a10.86,10.86,0,0,1-3.79.83c-3.76.1-4.49-2.7-4.52-4.73V19.5h9.43V12.23H27V0H20.08a0.37,0.37,0,0,0-.34.36c-0.4,3.74-2.12,10.31-9.24,12.94v6.2h4.75V35.18c0,5.37,3.88,13,14.11,12.82,3.45-.06,7.29-1.54,8.13-2.81l-2.26-6.84"/>
    </g>
  </symbol>

  <symbol id="twitter" viewBox="0 0 48 48">
    <g class="svg-icon">
      <path d="M48,8.74a19.23,19.23,0,0,1-5.65,1.59,10.08,10.08,0,0,0,4.33-5.58,19.4,19.4,0,0,1-6.26,2.45A9.71,9.71,0,0,0,33.23,4a10,10,0,0,0-9.84,10.1,10.3,10.3,0,0,0,.25,2.3A27.73,27.73,0,0,1,3.34,5.84,10.28,10.28,0,0,0,2,10.93a10.16,10.16,0,0,0,4.38,8.4,9.67,9.67,0,0,1-4.46-1.26v0.12a10,10,0,0,0,7.9,9.9,9.39,9.39,0,0,1-2.59.36,9.57,9.57,0,0,1-1.85-.18,9.89,9.89,0,0,0,9.2,7A19.44,19.44,0,0,1,2.35,39.61,19.71,19.71,0,0,1,0,39.47,27.42,27.42,0,0,0,15.1,44c18.12,0,28-15.38,28-28.73,0-.44,0-0.88,0-1.31A20.21,20.21,0,0,0,48,8.74"/>
    </g>
  </symbol>

  <symbol id="vimeo" viewBox="0 0 48 48">
    <g class="svg-icon">
      <path d="M48,13q-0.31,6.93-9.78,19Q28.41,44.5,21.62,44.5q-4.19,0-7.1-7.66-1.94-7-3.87-14.06Q8.49,15.11,6,15.11c-0.36,0-1.61.75-3.76,2.24L0,14.47Q3.55,11.39,7,8.3q4.72-4,7.1-4.26Q19.68,3.5,21,11.6q1.38,8.74,1.93,10.86,1.62,7.24,3.55,7.24Q28,29.7,31,25t3.23-7.14c0.29-2.7-.79-4-3.23-4a9.25,9.25,0,0,0-3.55.74Q31,3.19,41,3.51,48.4,3.71,48,13"/>
    </g>
  </symbol>

  <symbol id="vine" viewBox="0 0 48 48">
    <g class="svg-icon">
      <path d="M44,23.87a14.86,14.86,0,0,1-3.33.39c-5.76,0-10.19-4.05-10.19-11.1,0-3.45,1.32-5.25,3.2-5.25s3,1.61,3,4.88a19.06,19.06,0,0,1-.86,5.1s1.77,3.12,6.62,2.16A20.46,20.46,0,0,0,44,12.15C44,5.1,40.44,1,33.9,1,27.19,1,23.26,6.21,23.26,13.07s3.15,12.64,8.35,15.3a43.77,43.77,0,0,1-7.87,11.22c-5.26-6.42-10-15-12-31.67H4C7.59,35.72,18.28,44.58,21.11,46.28a4,4,0,0,0,4.44.09c2.3-1.32,9.19-8.26,13-16.4A25.39,25.39,0,0,0,44,29.34V23.87Z"/>
    </g>
  </symbol>

  <symbol id="windows" viewBox="0 0 48 48">
    <g class="svg-icon">
      <path d="M0,6.8L19.62,4.13V23L0,23.11ZM19.61,25.17l0,18.88L0,41.36V25ZM22,3.78L48,0V22.76L22,23V3.78ZM48,25.35V48L22,44.34l0-19Z"/>
    </g>
  </symbol>

  <symbol id="wordpress" viewBox="0 0 48 48">
    <g class="svg-icon">
      <path d="M0,24A24,24,0,0,0,13.53,45.6L2.08,14.23A23.92,23.92,0,0,0,0,24Zm40.2-1.21a12.64,12.64,0,0,0-2-6.62c-1.22-2-2.36-3.65-2.36-5.63a4.16,4.16,0,0,1,4-4.26l0.31,0A24,24,0,0,0,3.95,10.82l1.55,0c2.51,0,6.4-.3,6.4-0.3a1,1,0,0,1,.15,2s-1.3.15-2.75,0.23l8.74,26L23.29,23,19.55,12.75C18.26,12.67,17,12.52,17,12.52a1,1,0,0,1,.15-2s4,0.3,6.32.3c2.51,0,6.4-.3,6.4-0.3a1,1,0,0,1,.15,2s-1.3.15-2.75,0.23L36,38.55l2.4-8C39.41,27.23,40.2,24.84,40.2,22.79Zm4.86-10.3A18.36,18.36,0,0,1,45.22,15a22.66,22.66,0,0,1-1.83,8.6L36.07,44.74A24,24,0,0,0,45.06,12.49ZM24.42,26.1L17.22,47A24,24,0,0,0,32,46.64a2.28,2.28,0,0,1-.17-0.33Z"/>
    </g>
  </symbol>

  <symbol id="yelp" viewBox="0 0 48 48">
    <g class="svg-icon">
      <path d="M6.92,23.11c-0.77,1.25-1.09,5.18-.83,7.8a6.26,6.26,0,0,0,.47,2,1.66,1.66,0,0,0,1.41,1c0.38,0,.61,0,7.7-2.36l3.17-1a1.94,1.94,0,0,0,1.37-1.87A2.08,2.08,0,0,0,19,26.5l-2.23-.92c-7.62-3.19-8-3.32-8.35-3.32A1.65,1.65,0,0,0,6.92,23.11ZM24,46.9c0.12-.36.14-0.61,0.16-8.18,0,0,0-3.34,0-3.38a2,2,0,0,0-1.33-1.9,2,2,0,0,0-2.36.54L18.9,35.86c-5.34,6.37-5.56,6.66-5.69,7a1.53,1.53,0,0,0-.08.69,1.85,1.85,0,0,0,.43,1c1.24,1.5,7.17,3.72,9.07,3.39A1.67,1.67,0,0,0,24,46.9Zm12-2.63c1.79-.72,5.7-5.77,6-7.71a1.71,1.71,0,0,0-.57-1.63c-0.3-.23-0.53-0.32-7.62-2.68l-3.15-1.06a1.9,1.9,0,0,0-2.19.7,2.1,2.1,0,0,0-.21,2.46l1.25,2.07c4.21,6.94,4.53,7.43,4.83,7.67A1.61,1.61,0,0,0,36,44.27ZM32.35,26.4c8.05-2,8.36-2.09,8.68-2.3a1.69,1.69,0,0,0,.69-1.57,0.53,0.53,0,0,0,0-.07c-0.21-2-3.67-7.24-5.38-8.08a1.64,1.64,0,0,0-1.71.07c-0.31.21-.54,0.52-4.85,6.51l-2,2.72a2,2,0,0,0,0,2.32A2,2,0,0,0,30,27l0,0.07A24.09,24.09,0,0,1,32.35,26.4Zm-8.09-6.76C24.12,16.4,23.16,2,23,1.29A1.72,1.72,0,0,0,21.75.08C19.69-.44,11.84,1.8,10.38,3.32A1.77,1.77,0,0,0,9.88,5c0.23,0.48,10,16,10,16,1.44,2.37,2.61,2,3,1.88S24.39,22.41,24.26,19.64Z"/>
    </g>
  </symbol>

  <symbol id="youtube" viewBox="0 0 48 48">
    <g class="svg-icon">
      <path d="M19,30.27V16.69L32,23.5ZM47.52,14.33S47.05,11,45.61,9.54a6.83,6.83,0,0,0-4.81-2C34.09,7,24,7,24,7h0S13.91,7,7.2,7.49a6.83,6.83,0,0,0-4.81,2C0.95,11,.48,14.33.48,14.33A73.64,73.64,0,0,0,0,22.16v3.67a73.6,73.6,0,0,0,.48,7.82S0.95,37,2.39,38.45c1.83,1.93,4.23,1.87,5.29,2.07C11.52,40.89,24,41,24,41s10.09,0,16.8-.5a6.84,6.84,0,0,0,4.81-2c1.44-1.47,1.91-4.8,1.91-4.8A73.6,73.6,0,0,0,48,25.83V22.16a73.64,73.64,0,0,0-.48-7.82h0Z"/>
    </g>
  </symbol>

</svg>
